<?xml version="1.0" standalone="no"?>
<!DOCTYPE svg PUBLIC "-//W3C//DTD SVG 20010904//EN"
 "http://www.w3.org/TR/2001/REC-SVG-20010904/DTD/svg10.dtd">
<svg version="1.0" xmlns="http://www.w3.org/2000/svg"
 width="680.000000pt" height="680.000000pt" viewBox="0 0 680.000000 680.000000"
 preserveAspectRatio="xMidYMid meet">
<metadata>
Created by potrace 1.14, written by Peter Selinger 2001-2017
</metadata>
<g transform="translate(0.000000,680.000000) scale(0.100000,-0.100000)"
fill="#000000" stroke="none">
<path d="M3065 6320 c-3 -6 1 -7 9 -4 18 7 21 14 7 14 -6 0 -13 -4 -16 -10z"/>
<path d="M3474 6256 c-4 -11 -20 -14 -62 -11 -144 10 -430 5 -497 -8 -16 -4
-50 -9 -75 -12 -25 -3 -53 -8 -62 -11 -35 -10 -64 -16 -80 -16 -10 1 -20 -4
-23 -9 -4 -5 -11 -7 -16 -3 -5 3 -15 1 -22 -4 -7 -6 -24 -13 -37 -15 -14 -2
-38 -9 -53 -16 -16 -6 -34 -8 -40 -4 -7 3 -9 3 -5 -2 9 -10 -36 -35 -68 -37
-13 -1 -26 -8 -28 -14 -3 -7 -16 -11 -31 -10 -14 2 -28 -1 -32 -7 -3 -6 -1 -7
5 -3 7 4 12 5 12 3 0 -3 -44 -31 -97 -62 -54 -32 -100 -61 -103 -65 -8 -11
-54 -35 -63 -32 -5 1 -6 -2 -3 -7 4 -5 -4 -17 -16 -25 -31 -22 -158 -147 -182
-179 -11 -14 -23 -24 -28 -21 -4 3 -5 -2 -2 -10 4 -9 0 -18 -9 -22 -8 -3 -39
-27 -68 -55 -44 -41 -55 -47 -68 -36 -14 11 -14 10 -2 -6 13 -16 13 -20 1 -27
-8 -5 -18 -6 -22 -4 -5 3 -8 2 -7 -3 3 -18 -1 -36 -8 -30 -3 4 -21 -15 -38
-41 -18 -26 -40 -54 -49 -61 -9 -7 -16 -18 -16 -23 0 -17 -37 -58 -45 -50 -5
4 -5 1 -1 -6 5 -8 0 -22 -12 -35 -11 -12 -32 -50 -47 -84 -15 -35 -32 -63 -37
-63 -5 0 -7 -4 -3 -9 3 -5 -1 -16 -9 -24 -8 -8 -12 -17 -9 -21 3 -3 -2 -9 -11
-12 -14 -5 -15 -9 -4 -15 10 -7 11 -9 0 -9 -7 0 -10 -4 -7 -10 3 -5 2 -10 -3
-10 -6 0 -9 -6 -8 -12 1 -15 -50 -173 -65 -200 -5 -10 -9 -27 -9 -38 0 -11 -4
-20 -10 -20 -5 0 -9 -10 -7 -22 1 -15 -3 -22 -12 -20 -12 3 -12 0 -2 -12 7 -8
9 -21 5 -28 -4 -7 -9 -28 -11 -47 -2 -20 -12 -44 -21 -55 -9 -11 -11 -16 -4
-12 8 5 12 0 12 -13 0 -12 -3 -21 -7 -21 -5 0 -8 -17 -7 -37 1 -20 -2 -53 -7
-72 -7 -36 -15 -130 -25 -321 -6 -105 -7 -367 -2 -448 2 -23 -1 -42 -7 -42 -5
0 -5 -4 2 -8 6 -4 14 -47 18 -97 10 -121 13 -146 21 -172 4 -16 2 -23 -7 -23
-12 0 -12 -2 0 -9 7 -5 10 -14 7 -20 -4 -6 -11 -9 -16 -6 -4 3 -11 -2 -14 -11
-3 -8 -10 -12 -16 -9 -6 3 -7 -1 -4 -10 4 -8 1 -21 -5 -29 -6 -7 -8 -15 -5
-19 3 -3 1 -14 -5 -26 -6 -11 -12 -38 -13 -60 -1 -26 -5 -38 -12 -34 -8 5 -8
3 0 -8 5 -8 11 -29 13 -48 2 -26 0 -31 -11 -25 -10 6 -10 4 1 -9 11 -14 11
-17 0 -17 -12 0 -12 -2 -1 -9 18 -11 12 -67 -6 -63 -8 1 -11 -2 -7 -8 3 -6 11
-8 16 -5 5 4 9 0 9 -7 2 -32 11 -175 14 -198 1 -14 -2 -33 -6 -42 -5 -11 -5
-18 1 -18 5 0 10 -15 10 -32 1 -18 3 -57 4 -85 1 -29 6 -53 11 -53 4 0 2 -8
-5 -17 -8 -9 -9 -14 -3 -10 7 4 11 -3 12 -21 0 -15 1 -30 2 -34 1 -5 3 -16 5
-25 1 -10 7 -31 14 -47 6 -16 9 -36 7 -43 -3 -8 -2 -12 3 -9 4 3 13 -6 19 -19
7 -14 16 -25 22 -25 6 0 9 -4 6 -9 -3 -5 4 -11 15 -14 12 -3 18 -10 15 -16 -4
-6 4 -7 24 -1 24 7 30 6 30 -6 0 -10 -5 -12 -12 -8 -10 6 -10 4 -2 -7 20 -25
33 -96 20 -110 -7 -8 -8 -10 0 -6 7 4 12 -4 12 -21 1 -15 3 -36 4 -47 2 -12
-2 -19 -10 -17 -8 1 -11 -2 -7 -7 3 -6 12 -8 20 -4 11 3 15 -2 15 -18 0 -13 9
-53 21 -89 11 -36 22 -72 24 -80 8 -32 28 -86 43 -117 8 -18 12 -39 8 -48 -3
-9 -2 -13 4 -10 13 8 31 -30 24 -50 -4 -10 -2 -15 7 -13 7 2 21 -13 31 -32 9
-19 22 -41 28 -48 6 -7 8 -17 4 -24 -4 -7 -3 -8 4 -4 7 4 16 -2 21 -16 5 -13
16 -30 25 -37 9 -7 16 -20 16 -27 0 -8 5 -14 10 -14 6 0 13 -6 16 -14 3 -8 23
-33 44 -56 25 -27 36 -48 33 -58 -4 -10 -2 -13 5 -8 6 4 19 -3 29 -14 22 -26
140 -153 150 -162 72 -63 113 -103 113 -110 0 -5 -6 -6 -12 -2 -8 4 -9 3 -5
-2 5 -5 16 -9 25 -9 9 0 16 -5 15 -10 -1 -6 8 -12 19 -12 26 -2 60 -32 51 -46
-3 -5 -2 -7 4 -4 13 8 76 -31 68 -42 -3 -5 0 -13 6 -17 8 -5 9 -3 4 6 -6 10
-4 12 9 7 10 -4 20 -7 22 -7 3 0 2 -5 -1 -10 -4 -6 -3 -10 2 -9 30 5 44 -2 38
-20 -3 -11 0 -23 6 -27 8 -4 9 -3 5 4 -18 30 10 29 67 -2 34 -18 64 -32 67
-32 4 0 36 -10 63 -19 4 -1 16 -3 28 -4 12 -1 17 -5 13 -13 -4 -6 -3 -9 2 -5
14 8 116 -13 143 -30 13 -8 20 -10 17 -4 -4 6 -3 11 3 11 5 0 12 -4 16 -9 3
-5 17 -8 31 -5 17 3 23 1 19 -7 -6 -8 -2 -8 14 0 11 7 21 8 21 4 0 -5 19 -8
43 -8 30 0 41 -4 39 -13 -1 -8 2 -11 8 -7 6 3 8 9 6 13 -2 4 7 8 20 8 13 1 24
-2 24 -8 0 -5 5 -6 11 -2 6 3 49 9 96 11 69 4 84 2 78 -9 -4 -8 -1 -7 7 2 7 8
27 16 43 17 17 1 50 5 75 9 25 4 54 8 65 8 11 1 23 5 26 9 3 5 12 9 20 11 31
5 136 38 161 51 16 8 30 9 37 4 6 -5 9 -6 6 -2 -3 4 18 19 47 33 34 17 56 22
60 15 5 -6 8 -3 8 6 0 9 7 20 16 23 23 9 26 8 18 -6 -4 -7 3 -3 16 10 12 13
29 21 37 18 9 -4 11 -2 7 6 -5 8 -2 9 9 5 11 -4 17 -1 17 7 0 18 27 28 34 13
2 -7 5 -4 5 7 1 12 6 16 16 12 8 -3 15 -2 15 3 0 9 78 61 91 61 6 0 7 -5 3
-12 -5 -7 -3 -8 5 -4 7 5 10 10 7 13 -8 9 22 34 43 36 11 0 18 4 15 8 -2 4 11
16 29 28 55 36 82 55 125 89 23 18 46 31 52 27 6 -4 10 -3 9 2 -4 21 2 24 19
12 15 -13 16 -12 3 4 -12 16 -12 20 5 31 10 8 22 13 26 12 3 0 16 11 28 27 12
15 26 25 31 21 5 -3 8 -2 7 3 -4 12 84 93 94 87 5 -3 8 -2 7 3 -4 23 2 35 17
29 8 -3 13 -2 10 3 -3 4 7 22 22 39 15 17 44 51 65 76 21 26 43 44 48 40 5 -3
8 -1 7 5 -5 17 56 101 70 96 7 -3 11 -1 7 4 -3 5 2 16 10 24 8 9 15 18 15 22
0 5 82 113 120 157 8 10 26 31 40 48 27 32 57 38 93 18 12 -7 39 -13 59 -14
21 0 45 -7 55 -15 15 -11 16 -11 6 1 -10 11 -6 18 25 36 20 12 40 20 45 17 4
-2 6 -1 5 4 -3 10 34 73 43 73 3 0 14 18 24 40 10 22 21 38 25 35 4 -2 7 1 7
8 0 25 37 96 46 90 6 -3 7 -1 4 4 -7 11 46 176 54 169 2 -2 5 12 6 31 1 20 7
39 13 43 7 4 11 10 11 14 -3 23 0 46 7 43 4 -3 8 14 9 37 2 22 7 42 12 44 4 1
6 14 3 29 -3 14 -1 23 4 20 5 -3 10 14 11 36 3 93 5 102 16 109 8 5 8 8 1 8
-15 0 -10 40 7 52 11 8 11 9 -3 4 -15 -4 -18 1 -19 27 -2 48 -15 92 -39 127
-6 8 -18 27 -29 42 -10 16 -20 25 -24 22 -3 -3 -12 -2 -20 3 -13 7 -13 14 4
51 13 28 24 40 32 35 7 -4 6 0 -2 11 -11 13 -11 20 -3 28 7 7 12 22 12 34 0
13 7 29 15 37 8 8 12 17 8 20 -5 6 26 97 36 107 4 3 7 14 8 25 2 30 12 77 23
105 5 14 11 39 14 55 12 74 25 141 30 155 4 14 13 72 21 145 1 17 3 49 4 73 1
30 5 41 13 36 7 -5 8 -3 2 7 -12 20 -14 39 -3 39 6 0 7 6 2 13 -10 16 -13 37
-5 37 4 0 8 12 9 28 3 28 10 67 13 67 1 0 4 20 6 44 3 25 10 54 16 64 5 11 6
17 1 14 -4 -3 -6 35 -3 85 3 49 3 92 0 95 -3 2 -5 17 -6 31 -1 25 -4 45 -19
125 -16 86 -35 159 -44 172 -4 5 -6 20 -5 33 0 12 -3 22 -7 22 -5 0 -8 3 -7 8
3 12 -31 125 -47 154 -8 14 -15 36 -15 47 0 12 -4 21 -10 21 -5 0 -10 8 -10
18 0 9 -7 26 -15 36 -8 10 -12 23 -9 27 3 5 1 9 -5 9 -9 0 -20 16 -53 80 -7
14 -23 33 -35 43 -13 10 -23 23 -23 28 0 5 -16 26 -35 45 -20 19 -32 40 -29
46 4 6 3 8 -4 4 -6 -3 -17 1 -25 9 -9 8 -20 15 -24 15 -17 0 -53 41 -47 52 4
7 2 8 -5 4 -16 -10 -63 22 -55 37 4 7 4 9 0 5 -7 -6 -33 12 -70 48 -22 21 -95
54 -120 54 -14 0 -28 5 -31 10 -4 7 -14 6 -28 -1 -16 -9 -22 -9 -25 0 -2 6 -8
9 -13 5 -16 -10 -52 -14 -63 -6 -12 7 -24 9 -82 11 -27 1 -37 6 -41 21 -3 11
-9 20 -13 20 -5 0 -13 14 -19 30 -7 20 -7 30 0 30 6 0 3 7 -5 16 -17 17 -21
29 -7 20 5 -3 -9 29 -30 72 -38 76 -125 172 -155 172 -8 0 -14 4 -14 10 0 5
-22 25 -50 43 -27 19 -48 36 -45 38 2 3 -16 15 -41 28 -24 13 -44 27 -44 31 0
4 -34 22 -75 40 -41 18 -72 37 -68 43 3 6 2 7 -4 4 -9 -5 -83 16 -107 31 -6 3
-17 7 -26 8 -33 4 -120 30 -115 35 2 3 -16 4 -41 2 -35 -3 -44 -1 -38 9 6 10
5 11 -8 1 -8 -7 -18 -10 -21 -6 -4 3 -25 6 -48 5 -30 -1 -38 1 -33 11 6 9 5 9
-7 0 -8 -7 -43 -14 -77 -16 -50 -3 -62 -1 -58 10 3 7 3 13 0 13 -2 0 -7 -6
-10 -14z"/>
<path d="M2119 5953 c-13 -16 -12 -17 4 -4 16 13 21 21 13 21 -2 0 -10 -8 -17
-17z"/>
<path d="M1795 5641 c-3 -5 -2 -12 3 -15 5 -3 9 1 9 9 0 17 -3 19 -12 6z"/>
<path d="M1516 5447 c3 -10 9 -15 12 -12 3 3 0 11 -7 18 -10 9 -11 8 -5 -6z"/>
<path d="M1476 5273 c-6 -14 -5 -15 5 -6 7 7 10 15 7 18 -3 3 -9 -2 -12 -12z"/>
<path d="M1455 5220 c3 -5 8 -10 11 -10 2 0 4 5 4 10 0 6 -5 10 -11 10 -5 0
-7 -4 -4 -10z"/>
<path d="M5400 5206 c0 -2 8 -10 18 -17 15 -13 16 -12 3 4 -13 16 -21 21 -21
13z"/>
<path d="M1376 5102 c-3 -5 1 -9 9 -9 8 0 12 4 9 9 -3 4 -7 8 -9 8 -2 0 -6 -4
-9 -8z"/>
<path d="M1255 4780 c-3 -5 -1 -10 4 -10 6 0 11 5 11 10 0 6 -2 10 -4 10 -3 0
-8 -4 -11 -10z"/>
<path d="M1256 4738 c3 -5 10 -6 15 -3 13 9 11 12 -6 12 -8 0 -12 -4 -9 -9z"/>
<path d="M1215 4620 c3 -5 8 -10 11 -10 2 0 4 5 4 10 0 6 -5 10 -11 10 -5 0
-7 -4 -4 -10z"/>
<path d="M1175 4551 c-3 -5 -2 -12 3 -15 5 -3 9 1 9 9 0 17 -3 19 -12 6z"/>
<path d="M1165 4480 c-3 -6 1 -7 9 -4 18 7 21 14 7 14 -6 0 -13 -4 -16 -10z"/>
<path d="M1173 4423 c4 -3 1 -13 -6 -22 -11 -14 -10 -14 5 -2 16 12 16 31 1
31 -4 0 -3 -3 0 -7z"/>
<path d="M1196 4322 c-3 -5 1 -9 9 -9 8 0 12 4 9 9 -3 4 -7 8 -9 8 -2 0 -6 -4
-9 -8z"/>
<path d="M1146 4118 c3 -5 10 -6 15 -3 13 9 11 12 -6 12 -8 0 -12 -4 -9 -9z"/>
<path d="M1153 4055 c0 -8 4 -12 9 -9 5 3 6 10 3 15 -9 13 -12 11 -12 -6z"/>
<path d="M1175 3820 c3 -5 8 -10 11 -10 2 0 4 5 4 10 0 6 -5 10 -11 10 -5 0
-7 -4 -4 -10z"/>
<path d="M1130 3726 c0 -2 7 -7 16 -10 8 -3 12 -2 9 4 -6 10 -25 14 -25 6z"/>
<path d="M1194 3566 c1 -8 5 -18 8 -22 4 -3 5 1 4 10 -1 8 -5 18 -8 22 -4 3
-5 -1 -4 -10z"/>
<path d="M1196 3393 c-6 -14 -5 -15 5 -6 7 7 10 15 7 18 -3 3 -9 -2 -12 -12z"/>
<path d="M1175 3340 c-2 -3 5 -7 16 -7 10 -1 19 2 19 6 0 9 -29 10 -35 1z"/>
<path d="M1175 3300 c3 -5 8 -10 11 -10 2 0 4 5 4 10 0 6 -5 10 -11 10 -5 0
-7 -4 -4 -10z"/>
<path d="M1126 3222 c-3 -5 1 -9 9 -9 8 0 12 4 9 9 -3 4 -7 8 -9 8 -2 0 -6 -4
-9 -8z"/>
<path d="M1135 3020 c-3 -5 -1 -10 4 -10 6 0 11 5 11 10 0 6 -2 10 -4 10 -3 0
-8 -4 -11 -10z"/>
<path d="M1090 2879 c0 -5 5 -7 10 -4 6 3 10 8 10 11 0 2 -4 4 -10 4 -5 0 -10
-5 -10 -11z"/>
<path d="M1090 2840 c0 -5 5 -10 11 -10 5 0 7 5 4 10 -3 6 -8 10 -11 10 -2 0
-4 -4 -4 -10z"/>
<path d="M5526 2798 c3 -5 10 -6 15 -3 13 9 11 12 -6 12 -8 0 -12 -4 -9 -9z"/>
<path d="M1136 2738 c3 -5 10 -6 15 -3 13 9 11 12 -6 12 -8 0 -12 -4 -9 -9z"/>
<path d="M1036 2678 c3 -5 10 -6 15 -3 13 9 11 12 -6 12 -8 0 -12 -4 -9 -9z"/>
<path d="M1096 2638 c3 -5 10 -6 15 -3 13 9 11 12 -6 12 -8 0 -12 -4 -9 -9z"/>
<path d="M1140 2566 c0 -2 8 -10 18 -17 15 -13 16 -12 3 4 -13 16 -21 21 -21
13z"/>
<path d="M1130 2499 c0 -5 5 -7 10 -4 6 3 10 8 10 11 0 2 -4 4 -10 4 -5 0 -10
-5 -10 -11z"/>
<path d="M5473 2355 c0 -8 4 -12 9 -9 5 3 6 10 3 15 -9 13 -12 11 -12 -6z"/>
<path d="M1176 2302 c-3 -5 1 -9 9 -9 8 0 12 4 9 9 -3 4 -7 8 -9 8 -2 0 -6 -4
-9 -8z"/>
<path d="M1320 2100 c-9 -6 -10 -10 -3 -10 6 0 15 5 18 10 8 12 4 12 -15 0z"/>
<path d="M1354 2065 c1 -8 8 -21 16 -28 12 -10 12 -9 2 4 -6 9 -9 18 -6 21 3
3 1 9 -4 12 -6 3 -9 -1 -8 -9z"/>
<path d="M1271 2047 c-8 -10 -7 -14 2 -14 8 0 14 6 14 14 0 7 -1 13 -2 13 -2
0 -8 -6 -14 -13z"/>
<path d="M1333 1935 c0 -8 4 -12 9 -9 5 3 6 10 3 15 -9 13 -12 11 -12 -6z"/>
<path d="M1370 1819 c0 -5 5 -7 10 -4 6 3 10 8 10 11 0 2 -4 4 -10 4 -5 0 -10
-5 -10 -11z"/>
<path d="M4947 1779 c7 -7 15 -10 18 -7 3 3 -2 9 -12 12 -14 6 -15 5 -6 -5z"/>
<path d="M1370 1726 c0 -2 7 -7 16 -10 8 -3 12 -2 9 4 -6 10 -25 14 -25 6z"/>
<path d="M4920 1715 c-7 -8 -17 -12 -23 -8 -6 4 -7 1 -3 -6 6 -9 13 -8 27 5
10 9 19 19 19 21 0 7 -8 2 -20 -12z"/>
<path d="M4840 1600 c-9 -6 -10 -10 -3 -10 6 0 15 5 18 10 8 12 4 12 -15 0z"/>
<path d="M1430 1545 c0 -7 30 -13 34 -7 3 4 -4 9 -15 9 -10 1 -19 0 -19 -2z"/>
<path d="M1496 1502 c-3 -5 1 -9 9 -9 8 0 12 4 9 9 -3 4 -7 8 -9 8 -2 0 -6 -4
-9 -8z"/>
<path d="M4715 1470 c-4 -6 -11 -7 -17 -4 -7 4 -8 2 -4 -5 6 -9 11 -9 22 0 14
11 18 19 10 19 -3 0 -8 -5 -11 -10z"/>
<path d="M1516 1407 c3 -10 9 -15 12 -12 3 3 0 11 -7 18 -10 9 -11 8 -5 -6z"/>
<path d="M4616 1378 c3 -4 11 -5 19 -1 21 7 19 12 -4 10 -11 0 -18 -5 -15 -9z"/>
<path d="M1566 1322 c-3 -5 1 -9 9 -9 8 0 12 4 9 9 -3 4 -7 8 -9 8 -2 0 -6 -4
-9 -8z"/>
<path d="M1630 1240 c0 -5 5 -10 11 -10 5 0 7 5 4 10 -3 6 -8 10 -11 10 -2 0
-4 -4 -4 -10z"/>
<path d="M1710 1179 c0 -5 5 -7 10 -4 6 3 10 8 10 11 0 2 -4 4 -10 4 -5 0 -10
-5 -10 -11z"/>
<path d="M1775 1131 c-3 -5 -2 -12 3 -15 5 -3 9 1 9 9 0 17 -3 19 -12 6z"/>
<path d="M4469 1123 c-13 -16 -12 -17 4 -4 9 7 17 15 17 17 0 8 -8 3 -21 -13z"/>
<path d="M1707 1119 c7 -7 15 -10 18 -7 3 3 -2 9 -12 12 -14 6 -15 5 -6 -5z"/>
<path d="M1855 1020 c-3 -5 -1 -10 4 -10 6 0 11 5 11 10 0 6 -2 10 -4 10 -3 0
-8 -4 -11 -10z"/>
<path d="M1890 1021 c0 -6 4 -13 10 -16 6 -3 7 1 4 9 -7 18 -14 21 -14 7z"/>
<path d="M1896 982 c-3 -5 1 -9 9 -9 8 0 12 4 9 9 -3 4 -7 8 -9 8 -2 0 -6 -4
-9 -8z"/>
<path d="M4210 980 c0 -5 5 -10 11 -10 5 0 7 5 4 10 -3 6 -8 10 -11 10 -2 0
-4 -4 -4 -10z"/>
<path d="M1935 940 c-3 -5 -1 -10 4 -10 6 0 11 5 11 10 0 6 -2 10 -4 10 -3 0
-8 -4 -11 -10z"/>
<path d="M1970 940 c0 -5 5 -10 11 -10 5 0 7 5 4 10 -3 6 -8 10 -11 10 -2 0
-4 -4 -4 -10z"/>
<path d="M4150 921 c0 -6 4 -13 10 -16 6 -3 7 1 4 9 -7 18 -14 21 -14 7z"/>
<path d="M1975 900 c3 -5 8 -10 11 -10 2 0 4 5 4 10 0 6 -5 10 -11 10 -5 0 -7
-4 -4 -10z"/>
<path d="M2010 900 c0 -5 5 -10 11 -10 5 0 7 5 4 10 -3 6 -8 10 -11 10 -2 0
-4 -4 -4 -10z"/>
<path d="M2016 858 c3 -5 10 -6 15 -3 13 9 11 12 -6 12 -8 0 -12 -4 -9 -9z"/>
<path d="M4036 847 c3 -10 9 -15 12 -12 3 3 0 11 -7 18 -10 9 -11 8 -5 -6z"/>
<path d="M2055 820 c-3 -5 -1 -10 4 -10 6 0 11 5 11 10 0 6 -2 10 -4 10 -3 0
-8 -4 -11 -10z"/>
<path d="M2095 800 c3 -5 8 -10 11 -10 2 0 4 5 4 10 0 6 -5 10 -11 10 -5 0 -7
-4 -4 -10z"/>
<path d="M4033 795 c0 -8 4 -12 9 -9 5 3 6 10 3 15 -9 13 -12 11 -12 -6z"/>
<path d="M3935 780 c3 -5 8 -10 11 -10 2 0 4 5 4 10 0 6 -5 10 -11 10 -5 0 -7
-4 -4 -10z"/>
<path d="M3855 740 c-3 -5 -1 -10 4 -10 6 0 11 5 11 10 0 6 -2 10 -4 10 -3 0
-8 -4 -11 -10z"/>
<path d="M2214 696 c1 -8 5 -18 8 -22 4 -3 5 1 4 10 -1 8 -5 18 -8 22 -4 3 -5
-1 -4 -10z"/>
<path d="M3435 589 c-4 -6 -5 -12 -2 -15 2 -3 7 2 10 11 7 17 1 20 -8 4z"/>
<path d="M2555 561 c-3 -5 -2 -12 3 -15 5 -3 9 1 9 9 0 17 -3 19 -12 6z"/>
<path d="M2630 545 c0 -7 30 -13 34 -7 3 4 -4 9 -15 9 -10 1 -19 0 -19 -2z"/>
<path d="M3170 520 c0 -5 5 -10 11 -10 5 0 7 5 4 10 -3 6 -8 10 -11 10 -2 0
-4 -4 -4 -10z"/>
<path d="M3093 503 c4 -3 1 -13 -6 -22 -11 -14 -10 -14 5 -2 16 12 16 31 1 31
-4 0 -3 -3 0 -7z"/>
</g>
</svg>
